<!DOCTYPE svg PUBLIC "-//W3C//DTD SVG 1.1//EN" "http://www.w3.org/Graphics/SVG/1.1/DTD/svg11.dtd">
<!-- Uploaded to: SVG Repo, www.svgrepo.com, Transformed by: SVG Repo Mixer Tools -->
<svg width="800px" height="800px" viewBox="-29.1 -29.1 349.20 349.20" version="1.1" xmlns="http://www.w3.org/2000/svg" xmlns:xlink="http://www.w3.org/1999/xlink" preserveAspectRatio="xMidYMid" fill="#000000" stroke="#000000" stroke-width="0.0029100000000000003" transform="matrix(1, 0, 0, 1, 0, 0)rotate(0)">
<g id="SVGRepo_bgCarrier" stroke-width="0" transform="translate(4.365000000000009,4.365000000000009), scale(0.97)">
<rect x="-29.1" y="-29.1" width="349.20" height="349.20" rx="48.888000000000005" fill="#f0f0f0" strokewidth="0"/>
</g>
<g id="SVGRepo_tracerCarrier" stroke-linecap="round" stroke-linejoin="round" stroke="#CCCCCC" stroke-width="2.91"> <g> <polygon fill="#4040B2" points="176.485057 188.994162 256.000302 143.127442 256.000302 51.2485453 176.485057 97.2122358"> </polygon> <path d="M88.2425283,51.2485453 L167.757774,97.2122358 L167.757774,188.994162 L88.2425283,143.078957 M0,91.8304113 L79.5152453,137.745617 L79.5152453,45.9152057 L0,0 M88.2425283,244.994228 L167.757774,290.909434 L167.757774,199.079023 L88.2425283,153.163817" fill="#5C4EE5"> </path> </g> </g>
<g id="SVGRepo_iconCarrier"> <g> <polygon fill="#4040B2" points="176.485057 188.994162 256.000302 143.127442 256.000302 51.2485453 176.485057 97.2122358"> </polygon> <path d="M88.2425283,51.2485453 L167.757774,97.2122358 L167.757774,188.994162 L88.2425283,143.078957 M0,91.8304113 L79.5152453,137.745617 L79.5152453,45.9152057 L0,0 M88.2425283,244.994228 L167.757774,290.909434 L167.757774,199.079023 L88.2425283,153.163817" fill="#5C4EE5"> </path> </g> </g>
</svg>